<svg id="圖層_1" data-name="圖層 1" xmlns="http://www.w3.org/2000/svg" viewBox="0 0 907.21 702.41"><defs><style>.cls-1{fill:#3a2f1e;}.cls-2{fill:#fcfcfc;}.cls-3{fill:#f18888;stroke:#3a2f1e;stroke-miterlimit:10;stroke-width:3px;}.cls-4{fill:#f8b72b;}.cls-5{fill:#fdfdfd;}.cls-6{fill:#fff;}</style></defs><title>DOG</title><path class="cls-1" d="M1387.62,388.39c4.37,79.49-29.24,146.58-86,206.08-54.68,57.35-121.07,103.4-185.85,151-50.76,37.28-100.92,75.08-144.84,119-21.67,21.65-48,23.79-68,3.69-69.37-69.49-153.74-123.92-232.22-184.26-48.06-37-94.71-75.14-130.63-122.23-57-74.79-76.58-155.51-42.53-242.25C530,236.85,599.62,191.86,695.46,181.43c84.75-9.23,157.19,16.47,215.75,72.45,12.36,11.81,24.85,18.93,43.09,1.31,31.36-30.27,70.2-53.82,114.88-65.55,134-35.17,296.09,25.22,317,181.91C1386.88,377.14,1387.14,382.77,1387.62,388.39Z" transform="translate(-480.79 -179.59)"/><path class="cls-2" d="M795,714s193,70,299-2,81-208,81-208L927,471,706,489S682,656,795,714Z" transform="translate(-480.79 -179.59)"/><path class="cls-3" d="M898,582s-9,37-3,54,28,25.91,41,27c11.06.93,38-3,46-19,9.18-18.35-2-62-2-62s-33,1-42-27C938,555,934,569,898,582Z" transform="translate(-480.79 -179.59)"/><path class="cls-4" d="M818.28,722.45c-12.24-2.07-24.43-4.35-36.29-8.37-8.29-2.8-16.65-5.58-24.59-9.39-7.48-3.59-13.06-10.7-19.75-15.79-18.28-13.9-31.53-32.43-39.89-55.1-8.23-22.31-19.67-45.6-19.17-70.07.56-27.35,2.46-54.5,7.14-81.35a245.27,245.27,0,0,1,17.14-55.56c5.81-13.39,28.44-50,28.54-64.82.06-8.39,2.65-109.26,16-125,16.29-19.19,73.81,5.77,95.14,15,11.56,5,50.11,37,59.57,34,3.55,0,34,0,41.79-1,6.26-.84,35.53-7.35,42.67-11,9.78-5,22.85-23.52,37.35-34,12.44-9,45.73-36.58,57.79-36,4.54.22,14.31,9.48,27.56,31,8,13,16.19,22.6,32.9,82,4.75,16.89,8.8,41.55,9.78,52,8.89,15,24.27,65,27.75,75.42,3.42,10.24,7.15,20.35,9.74,30.9,3.6,14.68,4.83,29.78,5.88,44.89.72,10.28,1.41,20.58,1.62,30.89.72,34.1-16.76,74-32,103.33-7.06,13.58-16.53,25.14-27.26,35.58-15.69,15.26-34.26,23.82-53.45,30.8a160.6,160.6,0,0,1-29.56,7.45c-16.3,2.62-16.28-6.33-2.59-7.77a87.9,87.9,0,0,0,38.45-13.7c15-9.58,31.46-17.57,41.46-32.79,10.74-16.34,19.61-30,26-49,4.79-14.24,12.85-47.79,11.65-63.4a39.19,39.19,0,0,0-8.68-22.23c-8.41-10.28-19.56-14.91-31.28-16.42a104.1,104.1,0,0,0-40.92,2.35c-14.48,3.94-27.9,11.16-42.06,16-8.76,3-17.42,5.26-26.07-.43-.82-.53-1.93-1.67-3.35-.37,5.52,5.72,11.06,11.27,15.24,18.33,5.55,9.38,9.23,18.55,8.65,22.82-1.72-.74-2.16-2.58-2.78-4.22a82.36,82.36,0,0,0-11.32-20.92,90.11,90.11,0,0,0-26.72-23.19c-9.78-5.75-20.34-8.52-31.53-6.89a2.4,2.4,0,0,0-2,1.59,49.08,49.08,0,0,0-15.07-5.58c-15.72-2.68-31.19-1.58-46.11,5.17-.27-.43-.55-.6-.87-.07l.12,0c-6.5,0-13.31-1-19.35,1.73-15.72,7.09-29.44,17.34-40.24,32.61-10.59,15-15.53,29-16.81,47.56-.62,8.91,1,17.73,3.15,26.39,3.94,15.67,12,17.06,23.39,26.81A89.14,89.14,0,0,0,890.31,681c10.63,2.88,21.34,7.32,32.1,8.17,13.72,1.07,27.37-.77,41-3.45,14-2.76,27.35-10.29,40-17.51A79.07,79.07,0,0,0,1032,641c3.55-5.73,5.75-12.27,9.16-18.32a5,5,0,0,1,.31,4.27,79.86,79.86,0,0,1-10.75,21.85c-10.46,14.55-23.25,25.43-38.8,32.5-14.21,6.46-28.75,13.19-44.06,14.5a146.72,146.72,0,0,1-43.64-2.85c-17.34-3.76-33.73-13.7-48.29-25.75-18.11-15-28.6-23.77-30.89-48.7-2.19-24,3.27-42.82,16.34-62.22,1.92-2.85,4.91-4.84,5.85-8.52.15-.21.46-.54.42-.61-.33-.56-.59-.22-.81.16a50.24,50.24,0,0,1-8.31,1.17c-9.08.2-13.56-6-20-10.46-10.14-7-31.75-16.59-43.57-18-19-2.26-21.6-1.21-39.12,10-12.49,8-16.64,44.13-15.11,60,1.47,15.28,2.19,24.1,7.89,38,8.38,20.43,12.45,34,25.47,51.41,11.11,14.82,24.66,24.6,40.51,31.25C805.67,715.3,827.59,724,818.28,722.45Z" transform="translate(-480.79 -179.59)"/><path class="cls-1" d="M932.35,542c-6,0-9.91-1.38-15.12-3.38-9.17-3.51-16.1-12.49-21.29-20.46-6.4-9.82-4.67-16.83,5.41-23.51.41-.27,8.77-6,31-6.67,13.41-.4,27.54,3,31.8,5.8,10.66,4,14.85,15.61,9.1,24.59C965.89,529.84,959,538,942.13,542" transform="translate(-480.79 -179.59)"/><path class="cls-5" d="M846.07,294.09c-2.94,1.34-33.31,7.81-43,13.27-10,5.62-31.24,14.06-44.42,32-2.19,1.2.34-40,1.38-50.74,1.28-13.13,4.66-28.8,18.36-28.54,8.75.16,33.94,7.63,42.72,14.49C824.21,277,843.06,290.77,846.07,294.09Z" transform="translate(-480.79 -179.59)"/><path class="cls-5" d="M1127.06,335c-3-1.3-32-29-48-40-9.53-6.55-35.11-22.32-55.66-19.45-2.32-.82,24.69-28.83,32-35.82,8.95-8.55,21-17.33,30.77-6.57,6.26,6.87,24.49,37.07,26.69,48.84C1113.62,286.19,1126.9,330.25,1127.06,335Z" transform="translate(-480.79 -179.59)"/><path class="cls-5" d="M874.44,414a14.55,14.55,0,0,1,.89,12c-2.13,6.68-3.6,9-9.93,11.49-15.59,6.2-31.4,3.62-47.24-1.57-2.71-.88-5.54-1.58-8-3.05-13-7.69-11.88-16.05-6.78-27.61,2.09-4.73,1.88-4.55,5.29-8.26,7.78-8.47,18.89-9.2,29.34-4C850.1,399,865.29,403.67,874.44,414Z" transform="translate(-480.79 -179.59)"/><path class="cls-5" d="M1004.16,434.26c-3.44-2.05-5.28-4.78-6.15-9-1.32-6.45-1.17-9.06,2.77-14.47,9.73-13.33,23.6-19.83,38.7-24.27a37,37,0,0,1,7.83-1.91c13.94-.92,16.83,6.3,18,18.22.46,4.87.55,4.62-.51,9.4-2.42,10.91-11,17.46-21.77,19C1020.34,434.49,1008.1,439.47,1004.16,434.26Z" transform="translate(-480.79 -179.59)"/><path class="cls-1" d="M837.87,503.66c-19.11,1.34-43.89-8.08-53.23-27.87-.85-1.4,2.64-9.77,9.64-17.18,12.51-13.25,29.3-18.43,50-11,13,4.69,24.66,19.34,27.57,32.36,1.86,8.35-3.74,13.65-14.7,18.29C852,500.43,844,503.62,837.87,503.66Zm-7.17-44.19c-4.36-.23-9.07,3.27-9.1,7.11,0,4.12,2.67,6.11,6.45,6.56,4.3.52,8.94-3,9.29-6.77C837.68,462.76,834.72,459.68,830.7,459.47Zm9.85,20.8c.23-2.19-.82-3.65-2.9-3.65a3.8,3.8,0,0,0-3.87,3.87,3,3,0,0,0,3.3,3.36A3.4,3.4,0,0,0,840.55,480.27Z" transform="translate(-480.79 -179.59)"/><path class="cls-5" d="M846.83,547.29c.22-.38.48-.72.81-.16,0,.07-.27.4-.42.61Z" transform="translate(-480.79 -179.59)"/><path class="cls-5" d="M966.42,617l-.6.58c-.29-.41-.21-.51.25-.36.08,0,.22-.14.34-.22Z" transform="translate(-480.79 -179.59)"/><ellipse class="cls-2" cx="346.71" cy="286.41" rx="8.5" ry="8"/><ellipse class="cls-2" cx="357.21" cy="297.91" rx="4" ry="4.5"/><path class="cls-1" d="M1041.61,494.17c18.26,0,41.26-10.37,49-29.3.73-1.35-3.1-8.86-10.21-15.26-12.71-11.43-29-15.12-48.23-6.88-12.12,5.19-22.28,19.52-24.26,31.76-1.27,7.85,4.38,12.38,15.09,15.95C1028,492.11,1035.76,494.54,1041.61,494.17Zm4.14-41.37c4.13-.49,8.82,2.44,9.09,6,.28,3.81-2.17,5.83-5.75,6.5-4,.77-8.69-2.19-9.25-5.65S1041.93,453.27,1045.75,452.8Zm-8.12,19.9c-.35-2,.56-3.43,2.55-3.57a3.57,3.57,0,0,1,3.92,3.33,2.78,2.78,0,0,1-2.94,3.32A3.18,3.18,0,0,1,1037.63,472.7Z" transform="translate(-480.79 -179.59)"/><ellipse class="cls-2" cx="1047.65" cy="458.72" rx="8.5" ry="8" transform="translate(-569.95 154.04) rotate(-17.37)"/><ellipse class="cls-2" cx="1040.11" cy="473.13" rx="4" ry="4.5" transform="translate(-574.59 152.44) rotate(-17.37)"/><path class="cls-1" d="M936.33,542c6.4,14.47,15.15,26.84,28.22,33.7s26.82,6.08,40.45,1.07c-19,11.23-34.6,7.61-48.14-.14-12-4.75-19.68-18.2-19.68-18.2S933.28,566,929,570c-11.11,10.27-13.58,9.42-17,11-5.52,2.55-28.77,5.55-41.21.55,2.1-2,3.81-.7,5.42-.38,7.49,1.5,30.7-3,36.33-7.38,10.14-7.8,18.27-18.74,23.79-31.79" transform="translate(-480.79 -179.59)"/><path class="cls-6" d="M635.81,767.28c-3.82,0-9.34-.11-16.9-.33-7.2-.2-12.67-.31-16.25-.31a13.41,13.41,0,0,1-13.72-13.71c0-6.8.11-17,.32-30.38s.32-23.46.32-30c0-18.58-.82-38.41-2.42-58.91l-.08-1.25c-.51-6.16,3.53-12.86,12.39-14,3.31-.42,10.31-1,32.53-1,9.51,0,18.79.12,27.57.37,17.14.5,31.28,6.11,42,16.65,11.12,11,16.74,25.27,16.74,42.52s-4.76,31.6-14.13,42.67c-10.41,12.18-24.68,18.33-42.43,18.33-2.63,0-6.41-.14-11.53-.43l-2.65-.14c.08,1,.19,2.12.31,3.34.58,5.91.87,10.3.87,13.41A12.8,12.8,0,0,1,635.81,767.28ZM646,687.07c1.49,0,3.29.06,5.48.06,7,0,8.57-1.63,8.57-8.75,0-8.5-2.49-10-9.48-10-1.84,0-3.39,0-4.69,0,0,2.71-.07,6.39-.07,11.41C645.81,681.46,645.87,683.89,646,687.07Z" transform="translate(-480.79 -179.59)"/><path class="cls-6" d="M805,768a31.28,31.28,0,0,1-4.28-.38c-2.13-.29-9.85-.8-37-.8-4.5,0-11.31,0-20.81-.09-9.08-.06-16-.09-20.58-.09-8.16,0-14.08-5.77-14.08-13.71,0-6.95.39-17.41,1.15-31.1.74-13.29,1.12-23.34,1.12-29.86,0-6.71-.37-19.52-1.08-38.07-.18-4.7-.51-11.9-1-21.4l-.08-1.09a12.88,12.88,0,0,1,3.27-9.82,13.42,13.42,0,0,1,10-4.2c4.58,0,11.27.12,20.45.37,8.8.23,15.48.35,19.86.35s10.92-.12,19.62-.35c9.1-.25,15.71-.37,20.23-.37,8.33,0,14.71,4.83,16.28,12.32.31,1.45.73,4.19,1.6,13.94s1,12.45,1,13.81a12.79,12.79,0,0,1-5.58,10.83,13.16,13.16,0,0,1,3,8.27v.19a11,11,0,0,1-.36,2.84c-.17,1.37-.54,4.6-1.33,12.16-.44,4.4-.66,8.91-.66,13.35a12.91,12.91,0,0,1-3,8.15c5.65,1,10.74,5.85,10.74,14.14,0,2-.17,5.86-1.66,15.93-1.62,11.21-2.8,14.9-4.29,17.46l-.21.34A14.4,14.4,0,0,1,805,768Z" transform="translate(-480.79 -179.59)"/><path class="cls-6" d="M865.33,767.37c-8.55,0-14.29-.27-18.08-.86l-.26,0a13.68,13.68,0,0,1-11.68-13.72c0-7.26.31-18.21.92-32.54.59-14,.89-24.67.89-31.59,0-3.34-.13-9.86-.38-19.44-7.11.54-13.19.82-18.15.82-7.15,0-12.54-5.16-12.54-12,0-1.54.25-3.49,1.53-9.34,0,0,0-.07,0-.1,1-4.24,1.3-5.89,1.41-6.48.18-2.73.39-5.49.62-8.2v-.09a36,36,0,0,1,1.34-7.45c2.22-6.93,7.59-9.4,11.88-9.4.55,0,1,0,2.17.12l.52.06c9.26,1.2,23.38,1.81,42,1.81,5.13,0,15-.57,29.2-1.69,12.23-.94,12.23-.94,12.74-.94a13.52,13.52,0,0,1,9.15,2.77,13,13,0,0,1,4.36,9.66c0,.22,0,.43,0,.65,0,1.79-.06,4.16-.19,7.25-.14,3.73-.17,5.51-.17,6.34a43.72,43.72,0,0,0,.49,5.18,62.89,62.89,0,0,1,.69,8,12.71,12.71,0,0,1-13.08,12.9c-1.28,0-4.45-.09-16.44-.74-.19,9.18-.28,16-.28,20.27,0,7,.28,17.64.85,31.71.57,14.4.87,25.37.87,32.6,0,6.78-3.79,10.15-5.94,11.52s-4.36,1.77-7.11,2.1A138.88,138.88,0,0,1,865.33,767.37Z" transform="translate(-480.79 -179.59)"/><path class="cls-6" d="M1005.81,767.28c-3.81,0-9.34-.11-16.89-.33-7.2-.2-12.67-.31-16.26-.31A13.4,13.4,0,0,1,959,752.93c0-6.8.1-17,.32-30.38s.31-23.46.31-30c0-18.58-.81-38.41-2.41-58.91l-.09-1.25c-.51-6.16,3.54-12.86,12.39-14,3.31-.42,10.32-1,32.54-1,9.51,0,18.78.12,27.57.37,17.14.5,31.28,6.11,42.05,16.65,11.11,11,16.73,25.27,16.73,42.52s-4.75,31.6-14.12,42.67c-10.42,12.18-24.68,18.33-42.43,18.33-2.64,0-6.41-.14-11.54-.43l-2.65-.14c.09,1,.19,2.12.31,3.34.59,5.91.87,10.3.87,13.41A12.8,12.8,0,0,1,1005.81,767.28ZM1016,687.07c1.49,0,3.3.06,5.48.06,7,0,8.57-1.63,8.57-8.75,0-8.5-2.48-10-9.47-10-1.85,0-3.39,0-4.69,0,0,2.71-.08,6.4-.08,11.41C1015.81,681.46,1015.88,683.89,1016,687.07Z" transform="translate(-480.79 -179.59)"/><path class="cls-6" d="M1175,768a31.4,31.4,0,0,1-4.29-.38c-2.12-.29-9.84-.8-37-.8-4.51,0-11.31,0-20.82-.09-9.07-.06-16-.09-20.58-.09-8.15,0-14.07-5.77-14.07-13.71,0-6.95.38-17.41,1.15-31.1.74-13.29,1.11-23.34,1.11-29.86,0-6.71-.36-19.52-1.08-38.07-.17-4.75-.51-11.95-1-21.4l-.08-1.09a12.88,12.88,0,0,1,3.27-9.82,13.38,13.38,0,0,1,10-4.2c4.58,0,11.27.12,20.45.37,8.8.23,15.48.35,19.86.35s10.92-.12,19.62-.35c9.09-.25,15.71-.37,20.23-.37,8.33,0,14.71,4.84,16.28,12.33.31,1.45.72,4.2,1.6,13.93s1,12.45,1,13.81a12.8,12.8,0,0,1-5.59,10.83,13.11,13.11,0,0,1,3,8.27v.19a11.13,11.13,0,0,1-.37,2.85c-.17,1.36-.54,4.59-1.32,12.15-.44,4.4-.67,8.91-.67,13.35a12.9,12.9,0,0,1-2.94,8.15c5.65,1,10.73,5.85,10.73,14.14,0,2-.17,5.87-1.66,15.93-1.61,11.22-2.79,14.9-4.28,17.46l-.21.34A14.41,14.41,0,0,1,1175,768Z" transform="translate(-480.79 -179.59)"/><path class="cls-6" d="M1235.33,767.37c-8.54,0-14.29-.27-18.07-.86l-.27,0a13.68,13.68,0,0,1-11.67-13.72c0-7.26.3-18.21.91-32.54.6-14,.9-24.67.9-31.59,0-3.35-.13-9.87-.39-19.44-7.11.54-13.18.82-18.14.82-7.15,0-12.54-5.16-12.54-12,0-1.54.24-3.49,1.52-9.34l0-.1c1-4.23,1.3-5.88,1.41-6.48.18-2.75.38-5.51.61-8.21a35.79,35.79,0,0,1,1.35-7.53c2.22-6.93,7.59-9.4,11.87-9.4.56,0,1,0,2.17.12l.53.06c9.26,1.2,23.38,1.81,42,1.81,5.13,0,15-.57,29.2-1.69,12.23-.94,12.23-.94,12.73-.94a13.52,13.52,0,0,1,9.15,2.77,13,13,0,0,1,4.37,9.66c0,.22,0,.43,0,.65,0,1.8-.07,4.17-.2,7.26-.14,3.71-.17,5.5-.17,6.33a43.72,43.72,0,0,0,.49,5.18,63,63,0,0,1,.69,8,12.7,12.7,0,0,1-13.08,12.9c-1.27,0-4.45-.09-16.43-.74-.19,9.17-.29,16-.29,20.27,0,7,.29,17.64.85,31.71.58,14.41.87,25.37.87,32.6,0,6.78-3.78,10.15-5.93,11.52s-4.36,1.77-7.11,2.1A139,139,0,0,1,1235.33,767.37Z" transform="translate(-480.79 -179.59)"/><path class="cls-1" d="M707.27,676.93q0,21.93-11.5,35.51-12.32,14.4-34,14.4c-2.41,0-6-.13-10.91-.41s-8.5-.4-10.92-.4c-2.59,0-3.89,1.11-3.89,3.35q0,4.17.81,12.41t.82,12.32c0,1.39-.64,2.08-1.9,2.08q-5.53,0-16.58-.32t-16.57-.31a2.32,2.32,0,0,1-2.63-2.63q0-10,.32-30.21t.31-30.21q0-28.44-2.44-59.78l-.09-1.26c-.12-1.15.78-1.85,2.71-2.09q7.06-.9,31.16-.9,14.22,0,27.27.36,21.47.63,34.6,13.49Q707.26,655.56,707.27,676.93Zm-36.14,1.45q0-21.09-20.56-21.1-14.49,0-15.22,1.63-.63,1.19-.63,20.92c0,1.88.07,4.64.23,8.29s.22,6.42.22,8.29q0,1.82,16.31,1.81Q671.13,698.22,671.13,678.38Z" transform="translate(-480.79 -179.59)"/><path class="cls-1" d="M812.43,727.39a117.31,117.31,0,0,1-1.54,14.31Q809.25,753,808,755.19a3.36,3.36,0,0,1-3,1.72,22,22,0,0,1-2.71-.27q-6.62-.9-38.59-.9-7,0-20.74-.09t-20.65-.09c-2,0-3-.88-3-2.63q0-10.14,1.13-30.48T721.58,692q0-10.32-1.08-38.49-.29-7.26-1-21.65l-.09-1.27c-.12-1.39.63-2.08,2.26-2.08q6.71,0,20.16.36t20.15.36q6.62,0,19.93-.36t19.92-.36c3.14,0,4.95,1.17,5.44,3.53q.45,2.09,1.4,12.63t1,12.82c0,1.27-.6,1.9-1.81,1.9-.36,0-1,0-1.9-.09q-24.09-2-43.3-2c-3.2,0-5.16.76-5.88,2.26-.31.73-.46,3.05-.46,7,0,4.11.61,6.82,1.82,8.15q1.53,1.73,5.88,1.72c.61,0,1.78,0,3.53-.13s3.2-.14,4.35-.14q11.42,0,23.1-.63l5-.46a44.37,44.37,0,0,1,4.89-.36c1.45,0,2.18.69,2.18,2.08q0-1.89-1.63,13.86a143.47,143.47,0,0,0-.73,14.49c0,1.21-.87,1.82-2.63,1.82l-8.15-.91q-5.16-.54-23.55-.54h-9.6q-3.71,0-4.35,1.81-.09.45-.09,5.61,0,6.89.91,8.88c1,2.3,4.89,3.65,11.59,4.08H782q4.8,0,14.26-.86t14.18-.86C811.77,724.13,812.43,725.21,812.43,727.39Z" transform="translate(-480.79 -179.59)"/><path class="cls-1" d="M912.7,656.19c0,1.21-.67,1.81-2,1.81q-3.45,0-27.27-1.35-.54,22.9-.54,32,0,10.7.86,32.15t.86,32.16c0,1.15-.27,1.87-.81,2.17a11.46,11.46,0,0,1-2.54.46,131.06,131.06,0,0,1-15.94.72,125.7,125.7,0,0,1-16.4-.72,2.66,2.66,0,0,1-2.53-2.81q0-10.69.9-32.07t.91-32.06q0-7.07-.73-31.52-18.11,1.81-28.89,1.81c-1,0-1.45-.3-1.45-.91a52.27,52.27,0,0,1,1.27-7c1-4.23,1.51-6.79,1.63-7.7.18-2.84.39-5.67.63-8.51.43-4.53,1.15-6.8,2.18-6.8l1.27.09Q838.79,630,867.5,630q8.16,0,30.07-1.73l11.87-.9a4.9,4.9,0,0,1,2.08.23c.18.15.3.74.36,1.76,0,1.63-.06,3.9-.18,6.79-.12,3.21-.18,5.47-.18,6.8a55.18,55.18,0,0,0,.59,6.66A54.9,54.9,0,0,1,912.7,656.19Z" transform="translate(-480.79 -179.59)"/><path class="cls-1" d="M1077.28,676.93q0,21.93-11.51,35.51-12.32,14.4-34,14.4c-2.42,0-6.06-.13-10.92-.41s-8.5-.4-10.91-.4c-2.6,0-3.9,1.11-3.9,3.35q0,4.17.82,12.41t.81,12.32c0,1.39-.63,2.08-1.9,2.08q-5.52,0-16.57-.32t-16.58-.31a2.33,2.33,0,0,1-2.63-2.63q0-10,.32-30.21t.32-30.21q0-28.44-2.45-59.78l-.09-1.26c-.12-1.15.79-1.85,2.72-2.09q7.06-.9,31.16-.9,14.22,0,27.26.36,21.46.63,34.6,13.49Q1077.28,655.56,1077.28,676.93Zm-36.14,1.45q0-21.09-20.56-21.1-14.51,0-15.22,1.63-.63,1.19-.63,20.92,0,2.82.22,8.29c.15,3.65.23,6.42.23,8.29q0,1.82,16.3,1.81Q1041.13,698.22,1041.14,678.38Z" transform="translate(-480.79 -179.59)"/><path class="cls-1" d="M1182.44,727.39a119.44,119.44,0,0,1-1.54,14.31q-1.64,11.32-2.9,13.49a3.37,3.37,0,0,1-3,1.72,22.32,22.32,0,0,1-2.72-.27q-6.61-.9-38.58-.9-7,0-20.75-.09t-20.65-.09c-2,0-3-.88-3-2.63q0-10.14,1.14-30.48t1.13-30.48q0-10.32-1.09-38.49-.27-7.26-1-21.65l-.1-1.27c-.12-1.39.64-2.08,2.27-2.08q6.71,0,20.15.36t20.16.36q6.6,0,19.92-.36t19.93-.36c3.14,0,5,1.17,5.43,3.53.31,1.39.77,5.6,1.41,12.63s1,11.31,1,12.82c0,1.27-.61,1.9-1.81,1.9-.36,0-1,0-1.9-.09q-24.11-2-43.3-2c-3.2,0-5.16.76-5.89,2.26-.3.73-.45,3.05-.45,7,0,4.11.6,6.82,1.81,8.15q1.54,1.73,5.89,1.72c.6,0,1.78,0,3.53-.13s3.2-.14,4.35-.14q11.42,0,23.1-.63l5-.46a44.37,44.37,0,0,1,4.89-.36c1.45,0,2.17.69,2.17,2.08q0-1.89-1.63,13.86-.72,7.25-.72,14.49c0,1.21-.88,1.82-2.63,1.82l-8.15-.91q-5.16-.54-23.55-.54h-9.6q-3.72,0-4.35,1.81-.09.45-.09,5.61,0,6.89.91,8.88c1,2.3,4.89,3.65,11.59,4.08H1152q4.8,0,14.27-.86t14.17-.86C1181.77,724.13,1182.44,725.21,1182.44,727.39Z" transform="translate(-480.79 -179.59)"/><path class="cls-1" d="M1282.7,656.19c0,1.21-.66,1.81-2,1.81q-3.43,0-27.26-1.35-.54,22.9-.54,32,0,10.7.86,32.15t.86,32.16c0,1.15-.28,1.87-.82,2.17a11.31,11.31,0,0,1-2.54.46,131,131,0,0,1-15.94.72,125.51,125.51,0,0,1-16.39-.72,2.67,2.67,0,0,1-2.54-2.81q0-10.69.91-32.07t.9-32.06q0-7.07-.72-31.52-18.12,1.81-28.89,1.81c-1,0-1.45-.3-1.45-.91a53.26,53.26,0,0,1,1.26-7c1-4.23,1.51-6.79,1.64-7.7.18-2.84.39-5.67.63-8.51.42-4.53,1.15-6.8,2.17-6.8l1.27.09q14.67,1.9,43.39,1.91,8.15,0,30.07-1.73l11.86-.9a5,5,0,0,1,2.09.23c.18.15.3.74.36,1.76,0,1.63-.06,3.9-.18,6.79-.12,3.21-.18,5.47-.18,6.8a53.17,53.17,0,0,0,.59,6.66A54.4,54.4,0,0,1,1282.7,656.19Z" transform="translate(-480.79 -179.59)"/></svg>