<svg id="圖層_1" data-name="圖層 1" xmlns="http://www.w3.org/2000/svg" viewBox="0 0 909.21 765.41"><defs><style>.cls-1{fill:#3a2f1e;}.cls-2{fill:#fcfcfc;}.cls-3{fill:#f18888;stroke:#3a2f1e;stroke-miterlimit:10;stroke-width:3px;}.cls-4{fill:#f8b72b;}.cls-5{fill:#fdfdfd;}.cls-6{fill:#fff;}</style></defs><title>DOG2</title><path class="cls-1" d="M1383.62,357.39c4.37,79.49-29.24,146.58-86,206.08-54.68,57.35-121.07,103.4-185.85,151-50.76,37.28-100.92,75.08-144.84,119-21.67,21.65-48,23.79-68,3.69-69.37-69.49-153.74-123.92-232.22-184.26-48.06-37-94.71-75.14-130.63-122.23-57-74.79-76.58-155.51-42.53-242.25C526,205.85,595.62,160.86,691.46,150.43c84.75-9.23,157.19,16.47,215.75,72.45,12.36,11.81,24.85,18.93,43.09,1.31,31.36-30.27,70.2-53.82,114.88-65.55,134-35.17,296.09,25.22,317,181.91C1382.88,346.14,1383.14,351.77,1383.62,357.39Z" transform="translate(-476.79 -148.59)"/><path class="cls-2" d="M789.11,677.29s192.48,67,298.19-1.91,80.79-199.15,80.79-199.15L920.76,444.64,700.35,461.87S676.42,621.76,789.11,677.29Z" transform="translate(-476.79 -148.59)"/><path class="cls-3" d="M891.83,550.91s-9,35.43-3,51.7,27.88,24.81,40.89,25.85c11,.89,37.9-2.87,45.88-18.19,9.15-17.57-2-59.36-2-59.36s-32.91,1-41.88-25.85C931.73,525.06,927.74,538.47,891.83,550.91Z" transform="translate(-476.79 -148.59)"/><path class="cls-4" d="M812.32,685.38c-12.2-2-24.36-4.16-36.18-8-8.27-2.69-16.6-5.35-24.52-9-7.46-3.43-13-10.24-19.7-15.11-18.23-13.31-31.45-31-39.78-52.75-8.21-21.37-19.62-43.66-19.12-67.09.55-26.19,2.45-52.18,7.12-77.89a227.86,227.86,0,0,1,17.09-53.19c5.79-12.82,28.36-47.88,28.46-62.06.06-8,2.64-104.61,16-119.68,16.24-18.37,73.61,5.53,94.88,14.36,11.53,4.79,50,35.42,59.41,32.56,3.55,0,34,0,41.68-1,6.24-.8,35.44-7,42.56-10.53,9.75-4.79,22.78-22.52,37.24-32.55,12.41-8.62,45.61-35,57.64-34.47,4.53.21,14.27,9.07,27.48,29.68,8,12.44,16.15,21.64,32.81,78.51a339.78,339.78,0,0,1,9.76,49.78c8.86,14.36,24.21,62.25,27.67,72.21s7.13,19.48,9.72,29.59c3.59,14.05,4.81,28.51,5.86,43,.72,9.84,1.4,19.71,1.62,29.58.72,32.64-16.71,70.85-31.92,98.93-7,13-16.48,24.07-27.19,34.06-15.64,14.61-34.16,22.81-53.3,29.49a165.93,165.93,0,0,1-29.48,7.14c-16.26,2.51-16.23-6.07-2.58-7.45a90,90,0,0,0,38.35-13.11c15-9.18,31.36-16.82,41.34-31.4,10.71-15.64,19.56-28.74,25.93-46.91,4.78-13.63,12.82-45.75,11.62-60.7a36.72,36.72,0,0,0-8.66-21.29c-8.38-9.83-19.5-14.27-31.19-15.71a107.78,107.78,0,0,0-40.81,2.25c-14.44,3.77-27.83,10.68-41.95,15.36-8.73,2.89-17.37,5-26-.41-.82-.52-1.94-1.6-3.35-.36,5.5,5.48,11,10.79,15.2,17.55,5.53,9,9.21,17.76,8.63,21.84-1.72-.71-2.16-2.46-2.78-4a77.47,77.47,0,0,0-11.29-20c-7.46-9.45-16.62-16.54-26.65-22.2-9.74-5.5-20.28-8.15-31.44-6.6a2.39,2.39,0,0,0-2,1.53,49.72,49.72,0,0,0-15-5.34c-15.68-2.57-31.1-1.51-46,4.94-.26-.4-.54-.56-.86-.06l.12,0c-6.49,0-13.28-.95-19.3,1.65C863.73,507.22,850,517,839.28,531.66c-10.57,14.34-15.5,27.75-16.77,45.53-.62,8.54,1,17,3.14,25.27,3.93,15,12,16.33,23.33,25.67a90.19,90.19,0,0,0,35.18,17.59c10.6,2.75,21.29,7,32,7.81,13.68,1,27.3-.73,40.85-3.3,13.92-2.64,27.28-9.85,39.84-16.76a77.64,77.64,0,0,0,28.59-26.09c3.54-5.49,5.74-11.74,9.13-17.54a4.65,4.65,0,0,1,.32,4.09,75.29,75.29,0,0,1-10.72,20.92c-10.44,13.93-23.2,24.35-38.7,31.11-14.17,6.18-28.68,12.63-43.94,13.89A151.72,151.72,0,0,1,898,657.11c-17.29-3.59-33.64-13.11-48.16-24.65-18.06-14.36-28.53-22.75-30.81-46.62-2.18-23,3.26-41,16.3-59.57,1.91-2.73,4.89-4.63,5.83-8.16.15-.2.45-.52.42-.58-.33-.53-.59-.21-.81.15a52.17,52.17,0,0,1-8.28,1.12c-9.06.2-13.53-5.75-19.93-10-10.11-6.74-31.66-15.89-43.45-17.24-18.94-2.16-21.54-1.16-39,9.58-12.45,7.65-16.59,42.25-15.07,57.44,1.47,14.63,2.18,23.08,7.87,36.38,8.36,19.57,12.42,32.59,25.4,49.22,11.08,14.19,24.6,23.56,40.4,29.92C799.76,678.54,821.61,686.89,812.32,685.38Z" transform="translate(-476.79 -148.59)"/><path class="cls-1" d="M926.09,512.62c-6,0-9.88-1.33-15.08-3.24-9.15-3.36-16.06-12-21.23-19.59-6.38-9.41-4.66-16.11,5.4-22.51.41-.26,8.74-5.73,30.91-6.38,13.38-.39,27.46,2.89,31.71,5.55,10.63,3.86,14.82,14.95,9.08,23.54-7.34,11-14.19,18.75-31,22.63" transform="translate(-476.79 -148.59)"/><path class="cls-5" d="M840.05,275.27c-2.93,1.27-33.23,7.47-42.92,12.7-10,5.38-31.15,13.45-44.3,30.65-2.18,1.14.34-38.33,1.38-48.59,1.28-12.57,4.65-27.57,18.3-27.32,8.73.15,33.86,7.31,42.62,13.87C818.24,258.91,837,272.08,840.05,275.27Z" transform="translate(-476.79 -148.59)"/><path class="cls-5" d="M1120.28,314.43c-2.94-1.24-31.92-27.76-47.88-38.3-9.51-6.27-35-21.36-55.51-18.62-2.32-.78,24.62-27.6,31.9-34.29,8.92-8.19,20.91-16.6,30.69-6.29,6.24,6.58,24.42,35.49,26.61,46.76C1106.87,267.69,1120.12,309.89,1120.28,314.43Z" transform="translate(-476.79 -148.59)"/><path class="cls-5" d="M868.34,390.07a13.47,13.47,0,0,1,.89,11.49c-2.13,6.39-3.6,8.59-9.91,11-15.55,5.93-31.31,3.47-47.12-1.5a40.48,40.48,0,0,1-8-2.93c-13-7.36-11.85-15.36-6.76-26.43,2.08-4.53,1.87-4.36,5.27-7.91,7.77-8.11,18.85-8.8,29.26-3.83C844.06,375.73,859.21,380.17,868.34,390.07Z" transform="translate(-476.79 -148.59)"/><path class="cls-5" d="M997.71,409.46a11.94,11.94,0,0,1-6.14-8.64c-1.31-6.18-1.17-8.68,2.77-13.86,9.7-12.76,23.53-19,38.59-23.23a38,38,0,0,1,7.81-1.83c13.9-.89,16.78,6,17.92,17.44.46,4.67.55,4.43-.51,9-2.41,10.45-11,16.72-21.71,18.21C1013.84,409.68,1001.64,414.45,997.71,409.46Z" transform="translate(-476.79 -148.59)"/><path class="cls-1" d="M831.86,475.91c-19.05,1.28-43.76-7.74-53.08-26.68-.85-1.35,2.63-9.36,9.61-16.45,12.48-12.69,29.22-17.65,49.85-10.53,13,4.48,24.59,18.52,27.49,31,1.86,8-3.73,13.07-14.66,17.51C846,472.82,838,475.87,831.86,475.91Zm-7.15-42.31c-4.34-.22-9,3.13-9.07,6.8,0,4,2.66,5.85,6.44,6.29,4.28.5,8.91-2.88,9.26-6.48S828.73,433.8,824.71,433.6Zm9.83,19.91c.23-2.09-.82-3.49-2.9-3.49a3.72,3.72,0,0,0-3.86,3.7,2.89,2.89,0,0,0,3.29,3.22A3.32,3.32,0,0,0,834.54,453.51Z" transform="translate(-476.79 -148.59)"/><path class="cls-5" d="M840.8,517.68c.22-.36.48-.68.81-.15,0,.06-.27.38-.42.58Z" transform="translate(-476.79 -148.59)"/><path class="cls-5" d="M960.07,584.42l-.6.56c-.29-.4-.21-.49.25-.35.08,0,.22-.13.34-.21Z" transform="translate(-476.79 -148.59)"/><ellipse class="cls-2" cx="344.74" cy="291.26" rx="8.48" ry="7.66"/><ellipse class="cls-2" cx="355.21" cy="302.27" rx="3.99" ry="4.31"/><path class="cls-1" d="M1035.05,466.82c18.22,0,41.16-9.93,48.83-28.05.72-1.29-3.1-8.49-10.19-14.61-12.68-11-28.92-14.48-48.1-6.59-12.09,5-22.22,18.69-24.2,30.41-1.26,7.52,4.38,11.85,15.06,15.27C1021.44,464.85,1029.22,467.17,1035.05,466.82Zm4.13-39.6c4.12-.48,8.8,2.33,9.07,5.72.28,3.65-2.17,5.58-5.73,6.23-4,.73-8.67-2.1-9.23-5.41S1035.38,427.66,1039.18,427.22Zm-8.09,19c-.35-1.93.56-3.29,2.54-3.42a3.51,3.51,0,0,1,3.9,3.18c.27,1.92-1,3.14-2.92,3.19A3.13,3.13,0,0,1,1031.09,446.27Z" transform="translate(-476.79 -148.59)"/><ellipse class="cls-2" cx="1041.08" cy="432.88" rx="8.46" ry="7.68" transform="translate(-537.91 46.85) rotate(-10.42)"/><ellipse class="cls-2" cx="1033.55" cy="446.68" rx="3.97" ry="4.33" transform="translate(-568.66 332.27) rotate(-25.11)"/><path class="cls-1" d="M930.05,512.62c6.4,13.85,15.12,25.7,28.16,32.26s26.74,5.82,40.33,1c-18.94,10.76-34.5,7.29-48-.13-11.94-4.55-19.62-17.42-19.62-17.42s-3.89,7.29-8.16,11.07c-11.08,9.83-13.54,9-17,10.53-5.51,2.45-28.7,5.32-41.1.53,2.09-1.9,3.8-.67,5.4-.36,7.48,1.43,30.62-2.92,36.24-7.07a75,75,0,0,0,23.71-30.43" transform="translate(-476.79 -148.59)"/><path class="cls-6" d="M550.93,913.08c-4.84,0-11.85-.13-21.44-.41-9.13-.26-16.08-.39-20.63-.39a17,17,0,0,1-17.4-17.41c0-8.63.13-21.6.4-38.56s.4-29.76.4-38.11c0-23.59-1-48.75-3.06-74.78l-.11-1.58c-.65-7.81,4.49-16.32,15.73-17.73,4.19-.53,13.09-1.25,41.28-1.25,12.07,0,23.84.15,35,.46,21.75.64,39.69,7.76,53.36,21.14,14.11,13.92,21.24,32.06,21.24,54s-6,40.09-17.93,54.15c-13.22,15.45-31.32,23.26-53.85,23.26-3.34,0-8.13-.18-14.63-.54l-3.37-.18q.17,1.9.39,4.23c.75,7.5,1.11,13.07,1.11,17C567.42,905.9,560.33,913.08,550.93,913.08Zm12.94-101.79c1.89.05,4.18.08,7,.08,8.84,0,10.87-2.08,10.87-11.1,0-10.8-3.15-12.72-12-12.72-2.34,0-4.3,0-5.95.07-.06,3.44-.1,8.12-.1,14.48C563.62,804.17,563.71,807.25,563.87,811.29Z" transform="translate(-476.79 -148.59)"/><path class="cls-6" d="M765.67,914a38.46,38.46,0,0,1-5.45-.49c-2.69-.37-12.49-1-47-1-5.72,0-14.36,0-26.42-.12-11.51-.07-20.3-.11-26.12-.11-10.35,0-17.86-7.32-17.86-17.41,0-8.81.49-22.09,1.46-39.46.94-16.87,1.41-29.62,1.41-37.9,0-8.52-.46-24.77-1.37-48.31-.22-6-.64-15.11-1.24-27.16l-.1-1.4a16.22,16.22,0,0,1,4.15-12.45,17,17,0,0,1,12.75-5.33c5.81,0,14.3.15,26,.46,11.17.3,19.65.46,25.2.46s13.86-.16,24.91-.46c11.54-.31,19.94-.46,25.67-.46,10.57,0,18.67,6.13,20.67,15.64.39,1.83.91,5.31,2,17.68s1.27,15.8,1.27,17.53a16.27,16.27,0,0,1-7.09,13.75A16.64,16.64,0,0,1,782.26,798s0,.22,0,.25a14.27,14.27,0,0,1-.47,3.6c-.22,1.74-.69,5.83-1.68,15.43-.56,5.58-.84,11.3-.84,16.95a16.39,16.39,0,0,1-3.74,10.34c7.17,1.32,13.62,7.42,13.62,17.94,0,2.56-.22,7.44-2.1,20.21-2,14.24-3.55,18.91-5.45,22.16-.08.15-.17.29-.26.44A18.27,18.27,0,0,1,765.67,914Z" transform="translate(-476.79 -148.59)"/><path class="cls-6" d="M842.23,913.2c-10.85,0-18.14-.35-23-1.09l-.33-.05c-8.86-1.58-14.82-8.58-14.82-17.42,0-9.21.39-23.1,1.16-41.29.76-17.83,1.14-31.32,1.14-40.09,0-4.24-.17-12.51-.49-24.67-9,.68-16.74,1-23,1-9.07,0-15.91-6.54-15.91-15.22,0-2,.31-4.43,1.94-11.86a.5.5,0,0,1,0-.12c1.23-5.38,1.65-7.47,1.79-8.23.23-3.47.49-7,.78-10.41a.45.45,0,0,0,0-.11,44.6,44.6,0,0,1,1.7-9.45c2.82-8.8,9.63-11.94,15.07-11.94.71,0,1.32.05,2.76.16l.66.07c11.76,1.53,29.67,2.3,53.25,2.3,6.51,0,19-.72,37.07-2.14,15.52-1.19,15.52-1.19,16.16-1.19,2.57,0,7.36,0,11.61,3.51,5.06,4.24,5.41,10.06,5.54,12.25,0,.28,0,.56,0,.84,0,2.27-.08,5.28-.24,9.2-.18,4.73-.22,7-.22,8a54.77,54.77,0,0,0,.62,6.57,79.42,79.42,0,0,1,.88,10.21c0,9.33-7.14,16.37-16.6,16.37-1.62,0-5.65-.11-20.86-.94-.24,11.65-.36,20.27-.36,25.73,0,8.84.36,22.38,1.08,40.24.73,18.28,1.1,32.2,1.1,41.37,0,8.61-4.8,12.89-7.54,14.62s-5.52,2.25-9,2.68A178.1,178.1,0,0,1,842.23,913.2Z" transform="translate(-476.79 -148.59)"/><path class="cls-6" d="M1020.52,913.08c-4.84,0-11.86-.13-21.44-.41-9.14-.26-16.08-.39-20.64-.39A17,17,0,0,1,961,894.87c0-8.63.14-21.6.4-38.56s.41-29.76.41-38.11c0-23.59-1-48.75-3.07-74.78l-.11-1.58c-.65-7.81,4.49-16.32,15.73-17.73,4.2-.53,13.09-1.25,41.29-1.25,12.07,0,23.84.15,35,.46,21.75.64,39.7,7.76,53.37,21.14,14.1,13.92,21.24,32.06,21.24,54s-6,40.09-17.93,54.15c-13.22,15.45-31.32,23.26-53.85,23.26-3.35,0-8.14-.18-14.64-.54l-3.36-.18q.16,1.9.39,4.23c.74,7.5,1.1,13.07,1.1,17C1037,905.9,1029.92,913.08,1020.52,913.08Zm12.93-101.79c1.89.05,4.19.08,7,.08,8.85,0,10.88-2.08,10.88-11.1,0-10.8-3.15-12.72-12-12.72-2.33,0-4.3,0-5.94.07-.06,3.44-.1,8.12-.1,14.48C1033.21,804.17,1033.29,807.25,1033.45,811.29Z" transform="translate(-476.79 -148.59)"/><path class="cls-6" d="M1235.25,914a38.47,38.47,0,0,1-5.44-.49c-2.69-.37-12.49-1-47-1-5.71,0-14.35,0-26.41-.12-11.52-.07-20.3-.11-26.12-.11-10.35,0-17.86-7.32-17.86-17.41,0-8.82.49-22.1,1.45-39.46.94-16.88,1.42-29.63,1.42-37.9,0-8.52-.46-24.77-1.37-48.31-.23-6-.65-15.17-1.25-27.16l-.1-1.39a16.31,16.31,0,0,1,4.15-12.46,17,17,0,0,1,12.75-5.33c5.82,0,14.31.15,26,.46,11.16.3,19.64.46,25.2.46s13.86-.16,24.9-.46c11.54-.31,19.94-.46,25.68-.46,10.57,0,18.67,6.13,20.66,15.64.39,1.84.92,5.33,2,17.68s1.26,15.8,1.26,17.53a16.26,16.26,0,0,1-7.08,13.75,16.62,16.62,0,0,1,3.75,10.49v.25a13.83,13.83,0,0,1-.47,3.6c-.21,1.74-.68,5.83-1.67,15.43-.56,5.58-.85,11.3-.85,16.95a16.34,16.34,0,0,1-3.74,10.34c7.17,1.32,13.63,7.42,13.63,17.94,0,2.56-.22,7.45-2.11,20.21-2.05,14.24-3.55,18.92-5.44,22.17l-.26.43A18.28,18.28,0,0,1,1235.25,914Z" transform="translate(-476.79 -148.59)"/><path class="cls-6" d="M1311.81,913.2c-10.84,0-18.13-.35-22.94-1.09l-.34-.05c-8.86-1.58-14.82-8.58-14.82-17.42,0-9.21.39-23.1,1.17-41.29.75-17.82,1.13-31.31,1.13-40.09,0-4.26-.16-12.53-.49-24.67-9,.68-16.73,1-23,1-9.07,0-15.91-6.54-15.91-15.22,0-2,.31-4.43,1.94-11.86l0-.12c1.22-5.37,1.65-7.47,1.79-8.23.22-3.49.49-7,.78-10.41a45,45,0,0,1,1.71-9.56c2.81-8.8,9.63-11.94,15.07-11.94.7,0,1.31.05,2.75.16l.67.07c11.75,1.53,29.67,2.3,53.25,2.3,6.51,0,19-.72,37.06-2.14,15.52-1.19,15.52-1.19,16.16-1.19,2.57,0,7.36,0,11.61,3.5,5.07,4.26,5.41,10.07,5.54,12.26q0,.42,0,.84c0,2.27-.08,5.28-.25,9.2-.18,4.72-.21,7-.21,8a54.6,54.6,0,0,0,.62,6.57,81.2,81.2,0,0,1,.87,10.21c0,9.33-7.14,16.37-16.6,16.37-1.62,0-5.64-.11-20.86-.94-.24,11.63-.36,20.25-.36,25.73,0,8.84.36,22.38,1.08,40.24.73,18.28,1.1,32.2,1.1,41.37,0,8.6-4.8,12.88-7.53,14.62s-5.53,2.25-9,2.68A178.28,178.28,0,0,1,1311.81,913.2Z" transform="translate(-476.79 -148.59)"/><path class="cls-1" d="M641.63,798.43q0,27.81-14.6,45.06-15.63,18.27-43.11,18.28-4.59,0-13.85-.52t-13.85-.52c-3.3,0-4.94,1.42-4.94,4.25q0,5.29,1,15.75t1,15.64c0,1.76-.81,2.64-2.42,2.64q-7,0-21-.4t-21-.4q-3.33,0-3.33-3.34,0-12.75.4-38.33t.4-38.34q0-36.09-3.1-75.87l-.12-1.61q-.23-2.19,3.45-2.64,9-1.16,39.54-1.15,18.06,0,34.61.46,27.24.79,43.91,17.12Q641.63,771.3,641.63,798.43Zm-45.86,1.84q0-26.79-26.1-26.79-18.39,0-19.31,2.07-.81,1.5-.81,26.55,0,3.57.29,10.52t.29,10.52q0,2.31,20.69,2.3Q595.77,825.44,595.77,800.27Z" transform="translate(-476.79 -148.59)"/><path class="cls-1" d="M775.09,862.46q0,4.93-2,18.16-2.07,14.37-3.68,17.13a4.28,4.28,0,0,1-3.79,2.18,27.73,27.73,0,0,1-3.45-.34q-8.4-1.15-49-1.15-8.85,0-26.33-.12t-26.21-.11q-3.8,0-3.79-3.34,0-12.87,1.44-38.68t1.43-38.68q0-13.11-1.38-48.86-.35-9.2-1.26-27.47l-.11-1.61c-.16-1.76.8-2.64,2.87-2.64q8.51,0,25.58.46t25.57.46q8.4,0,25.29-.46t25.29-.46q6,0,6.9,4.48.57,2.64,1.78,16c.81,8.92,1.21,14.35,1.21,16.26,0,1.61-.77,2.42-2.3,2.42-.46,0-1.26,0-2.41-.12q-30.59-2.52-55-2.53-6.09,0-7.47,2.88c-.39.91-.58,3.87-.58,8.85q0,7.81,2.3,10.34,1.95,2.19,7.47,2.19c.77,0,2.26-.06,4.49-.18s4.06-.17,5.51-.17q14.49,0,29.32-.8l6.32-.58a57.57,57.57,0,0,1,6.21-.46c1.84,0,2.76.88,2.76,2.65q0-2.41-2.07,17.58a183,183,0,0,0-.92,18.4c0,1.53-1.12,2.3-3.34,2.3l-10.34-1.15q-6.56-.69-29.89-.69H709.45c-3.14,0-5,.76-5.51,2.3q-.12.57-.12,7.12,0,8.75,1.15,11.27,1.95,4.36,14.71,5.17h16.79q6.09,0,18.1-1.09t18-1.09Q775.1,858.32,775.09,862.46Z" transform="translate(-476.79 -148.59)"/><path class="cls-1" d="M902.35,772.1c0,1.54-.85,2.3-2.53,2.3q-4.38,0-34.6-1.72-.69,29.09-.69,40.58,0,13.56,1.09,40.8t1.09,40.81c0,1.46-.34,2.38-1,2.76a13.37,13.37,0,0,1-3.22.58,166,166,0,0,1-20.23.92q-14.84,0-20.81-.92c-2.15-.39-3.22-1.57-3.22-3.57q0-13.56,1.15-40.69t1.15-40.69q0-9-.92-40-23,2.31-36.67,2.3c-1.23,0-1.84-.38-1.84-1.15a66.29,66.29,0,0,1,1.61-8.85q1.83-8,2.07-9.77.35-5.4.8-10.81c.54-5.74,1.46-8.62,2.76-8.62.15,0,.69,0,1.61.12q18.63,2.41,55.06,2.41,10.35,0,38.17-2.18l15.06-1.15a6.35,6.35,0,0,1,2.64.28c.23.2.38.94.46,2.25,0,2.06-.08,4.94-.23,8.62q-.23,6.09-.23,8.62a69.14,69.14,0,0,0,.75,8.45A68.76,68.76,0,0,1,902.35,772.1Z" transform="translate(-476.79 -148.59)"/><path class="cls-1" d="M1111.22,798.43q0,27.81-14.6,45.06-15.64,18.27-43.11,18.28-4.6,0-13.85-.52t-13.85-.52q-4.95,0-4.95,4.25,0,5.29,1,15.75t1,15.64c0,1.76-.8,2.64-2.41,2.64q-7,0-21-.4t-21-.4q-3.33,0-3.33-3.34,0-12.75.4-38.33t.41-38.34q0-36.09-3.11-75.87l-.11-1.61q-.24-2.19,3.45-2.64,9-1.16,39.54-1.15,18,0,34.6.46,27.24.79,43.91,17.12Q1111.21,771.3,1111.22,798.43Zm-45.87,1.84q0-26.79-26.1-26.79-18.39,0-19.31,2.07-.8,1.5-.8,26.55c0,2.38.09,5.89.29,10.52s.28,8.15.28,10.52q0,2.31,20.69,2.3Q1065.34,825.44,1065.35,800.27Z" transform="translate(-476.79 -148.59)"/><path class="cls-1" d="M1244.68,862.46q0,4.93-2,18.16-2.07,14.37-3.68,17.13a4.28,4.28,0,0,1-3.79,2.18,27.73,27.73,0,0,1-3.45-.34q-8.38-1.15-49-1.15-8.85,0-26.32-.12t-26.21-.11q-3.79,0-3.79-3.34,0-12.87,1.43-38.68t1.44-38.68q0-13.11-1.38-48.86-.35-9.2-1.27-27.47l-.11-1.61c-.15-1.76.81-2.64,2.87-2.64q8.51,0,25.58.46t25.58.46q8.38,0,25.29-.46t25.29-.46q6,0,6.89,4.48.59,2.64,1.79,16c.8,8.92,1.2,14.35,1.2,16.26,0,1.61-.76,2.42-2.29,2.42-.46,0-1.27,0-2.42-.12q-30.59-2.52-55-2.53-6.09,0-7.47,2.88c-.38.91-.57,3.87-.57,8.85q0,7.81,2.29,10.34,2,2.19,7.48,2.19c.76,0,2.26-.06,4.48-.18s4.06-.17,5.52-.17q14.47,0,29.31-.8l6.32-.58a57.92,57.92,0,0,1,6.21-.46c1.84,0,2.76.88,2.76,2.65q0-2.41-2.07,17.58-.92,9.21-.92,18.4c0,1.53-1.11,2.3-3.33,2.3l-10.35-1.15q-6.55-.69-29.89-.69H1179c-3.14,0-5,.76-5.52,2.3-.08.38-.11,2.75-.11,7.12q0,8.75,1.15,11.27,1.95,4.36,14.71,5.17h16.78q6.09,0,18.11-1.09t18-1.09C1243.83,858.32,1244.68,859.7,1244.68,862.46Z" transform="translate(-476.79 -148.59)"/><path class="cls-1" d="M1371.93,772.1c0,1.54-.84,2.3-2.53,2.3q-4.37,0-34.6-1.72-.69,29.09-.69,40.58,0,13.56,1.09,40.8t1.09,40.81c0,1.46-.34,2.38-1,2.76a13.24,13.24,0,0,1-3.22.58,165.9,165.9,0,0,1-20.23.92q-14.83,0-20.81-.92c-2.14-.39-3.22-1.57-3.22-3.57q0-13.56,1.15-40.69t1.15-40.69q0-9-.92-40-23,2.31-36.67,2.3c-1.22,0-1.84-.38-1.84-1.15a68.15,68.15,0,0,1,1.61-8.85q1.85-8,2.07-9.77.35-5.4.81-10.81c.53-5.74,1.45-8.62,2.76-8.62.15,0,.69,0,1.61.12q18.62,2.41,55.06,2.41,10.35,0,38.16-2.18l15.06-1.15a6.42,6.42,0,0,1,2.65.28c.23.2.38.94.46,2.25,0,2.06-.08,4.94-.23,8.62-.16,4.06-.23,6.93-.23,8.62a68.69,68.69,0,0,0,.74,8.45A68.76,68.76,0,0,1,1371.93,772.1Z" transform="translate(-476.79 -148.59)"/></svg>