<svg id="圖層_1" data-name="圖層 1" xmlns="http://www.w3.org/2000/svg" viewBox="0 0 907.21 702.41"><defs><style>.cls-1{fill:#3a2f1e;}.cls-2{fill:#fcfcfc;}.cls-3{fill:#f18888;stroke:#3a2f1e;stroke-miterlimit:10;stroke-width:3px;}.cls-4{fill:#f8b72b;}.cls-5{fill:#fdfdfd;}</style></defs><title>DOG3</title><path class="cls-1" d="M1383.62,357.39c4.37,79.49-29.24,146.58-86,206.08-54.68,57.35-121.07,103.4-185.85,151-50.76,37.28-100.92,75.08-144.84,119-21.67,21.65-48,23.79-68,3.69-69.37-69.49-153.74-123.92-232.22-184.26-48.06-37-94.71-75.14-130.63-122.23-57-74.79-76.58-155.51-42.53-242.25C526,205.85,595.62,160.86,691.46,150.43c84.75-9.23,157.19,16.47,215.75,72.45,12.36,11.81,24.85,18.93,43.09,1.31,31.36-30.27,70.2-53.82,114.88-65.55,134-35.17,296.09,25.22,317,181.91C1382.88,346.14,1383.14,351.77,1383.62,357.39Z" transform="translate(-476.79 -148.59)"/><path class="cls-2" d="M794.5,688.29s183.17,67,283.77-1.91,76.87-199.15,76.87-199.15L919.77,455.64,710,472.87S687.25,632.76,794.5,688.29Z" transform="translate(-476.79 -148.59)"/><path class="cls-3" d="M892.25,561.91s-8.54,35.43-2.85,51.7,26.54,24.81,38.92,25.85c10.49.89,36.06-2.87,43.65-18.19,8.71-17.57-1.89-59.36-1.89-59.36s-31.32,1-39.87-25.85C930.21,536.06,926.42,549.47,892.25,561.91Z" transform="translate(-476.79 -148.59)"/><path class="cls-4" d="M816.59,696.38c-11.61-2-23.19-4.16-34.44-8-7.87-2.69-15.8-5.35-23.34-9-7.1-3.43-12.39-10.24-18.74-15.11-17.35-13.31-29.92-31-37.86-52.75-7.81-21.37-18.67-43.66-18.19-67.09.53-26.19,2.33-52.18,6.77-77.89a236.32,236.32,0,0,1,16.27-53.19c5.51-12.82,27-47.88,27.08-62.06.06-8,2.52-104.61,15.19-119.68,15.46-18.37,70,5.53,90.29,14.36,11,4.79,47.56,35.42,56.54,32.56,3.38,0,32.31,0,39.66-1,5.94-.8,33.73-7,40.5-10.53,9.29-4.79,21.69-22.52,35.45-32.55,11.81-8.62,43.4-35,54.84-34.47,4.31.21,13.59,9.07,26.16,29.68,7.6,12.44,15.37,21.64,31.23,78.51a354.74,354.74,0,0,1,9.28,49.78c8.44,14.36,23,62.25,26.33,72.21s6.79,19.48,9.25,29.59c3.41,14.05,4.58,28.51,5.58,43,.68,9.84,1.33,19.71,1.54,29.58.68,32.64-15.91,70.85-30.37,98.93-6.7,13-15.69,24.07-25.88,34.06-14.88,14.61-32.51,22.81-50.72,29.49A151.52,151.52,0,0,1,1041,702c-15.47,2.51-15.44-6.07-2.45-7.45A82.91,82.91,0,0,0,1075,681.39c14.24-9.18,29.85-16.82,39.34-31.4,10.2-15.64,18.62-28.74,24.68-46.91,4.55-13.63,12.2-45.75,11.06-60.7a37.84,37.84,0,0,0-8.24-21.29c-8-9.83-18.56-14.27-29.68-15.71a97.75,97.75,0,0,0-38.84,2.25c-13.74,3.77-26.48,10.68-39.92,15.36-8.31,2.89-16.53,5-24.74-.41-.78-.52-1.84-1.6-3.18-.36,5.23,5.48,10.5,10.79,14.46,17.55,5.27,9,8.76,17.76,8.21,21.84-1.63-.71-2.05-2.46-2.64-4a78.52,78.52,0,0,0-10.75-20,85.7,85.7,0,0,0-25.35-22.2c-9.28-5.5-19.3-8.15-29.93-6.6a2.29,2.29,0,0,0-1.91,1.53,45.89,45.89,0,0,0-14.29-5.34c-14.93-2.57-29.6-1.51-43.77,4.94-.25-.4-.52-.56-.82-.06l.11,0c-6.17,0-12.63-.95-18.36,1.65-14.93,6.79-27.95,16.61-38.19,31.23-10.06,14.34-14.75,27.75-16,45.53-.59,8.54.92,17,3,25.27,3.74,15,11.37,16.33,22.2,25.67A84.26,84.26,0,0,0,885,656.72c10.09,2.75,20.26,7,30.47,7.81,13,1,26-.73,38.87-3.3,13.25-2.64,26-9.85,37.92-16.76a75.36,75.36,0,0,0,27.21-26.09c3.37-5.49,5.46-11.74,8.69-17.54a4.88,4.88,0,0,1,.3,4.09,77,77,0,0,1-10.2,20.92c-9.94,13.93-22.08,24.35-36.83,31.11-13.49,6.18-27.29,12.63-41.81,13.89a137.65,137.65,0,0,1-41.43-2.74c-16.45-3.59-32-13.11-45.82-24.65-17.19-14.36-27.15-22.75-29.32-46.62-2.08-23,3.1-41,15.51-59.57,1.82-2.73,4.65-4.63,5.55-8.16.14-.2.43-.52.39-.58-.31-.53-.55-.21-.76.15a47.45,47.45,0,0,1-7.89,1.12c-8.62.2-12.87-5.75-19-10-9.62-6.74-30.13-15.89-41.35-17.24-18-2.16-20.5-1.16-37.13,9.58-11.85,7.65-15.79,42.25-14.34,57.44,1.39,14.63,2.08,23.08,7.48,36.38,8,19.57,11.83,32.59,24.18,49.22a90.09,90.09,0,0,0,38.44,29.92C804.63,689.54,825.43,697.89,816.59,696.38Z" transform="translate(-476.79 -148.59)"/><path class="cls-1" d="M924.85,523.62c-5.69,0-9.4-1.33-14.34-3.24-8.71-3.36-15.29-12-20.21-19.59-6.08-9.41-4.44-16.11,5.13-22.51.39-.26,8.32-5.73,29.42-6.38,12.73-.39,26.14,2.89,30.18,5.55,10.12,3.86,14.1,14.95,8.64,23.54-7,11-13.5,18.75-29.54,22.63" transform="translate(-476.79 -148.59)"/><path class="cls-5" d="M843,286.27c-2.79,1.27-31.62,7.47-40.84,12.7-9.49,5.38-29.65,13.45-42.16,30.65-2.08,1.14.32-38.33,1.31-48.59,1.22-12.57,4.43-27.57,17.42-27.32,8.31.15,32.22,7.31,40.55,13.87C822.22,269.91,840.1,283.08,843,286.27Z" transform="translate(-476.79 -148.59)"/><path class="cls-5" d="M1109.65,325.43c-2.8-1.24-30.38-27.76-45.57-38.3-9-6.27-33.32-21.36-52.82-18.62-2.2-.78,23.43-27.6,30.36-34.29,8.49-8.19,19.9-16.6,29.2-6.29,5.94,6.58,23.24,35.49,25.33,46.76C1096.89,278.69,1109.5,320.89,1109.65,325.43Z" transform="translate(-476.79 -148.59)"/><path class="cls-5" d="M869.89,401.07a14.05,14.05,0,0,1,.85,11.49c-2,6.39-3.43,8.59-9.43,11-14.8,5.93-29.8,3.47-44.84-1.5a37.09,37.09,0,0,1-7.6-2.93c-12.35-7.36-11.28-15.36-6.44-26.43,2-4.53,1.78-4.36,5-7.91,7.39-8.11,17.93-8.8,27.85-3.83C846.79,386.73,861.21,391.17,869.89,401.07Z" transform="translate(-476.79 -148.59)"/><path class="cls-5" d="M993,420.46c-3.27-2-5-4.57-5.84-8.64-1.25-6.18-1.11-8.68,2.63-13.86,9.23-12.76,22.4-19,36.72-23.23a34.93,34.93,0,0,1,7.43-1.83c13.24-.89,16,6,17.06,17.44.44,4.67.53,4.43-.48,9-2.3,10.45-10.46,16.72-20.67,18.21C1008.36,420.68,996.75,425.45,993,420.46Z" transform="translate(-476.79 -148.59)"/><path class="cls-1" d="M835.18,486.91c-18.13,1.28-41.65-7.74-50.52-26.68-.8-1.35,2.51-9.36,9.15-16.45,11.88-12.69,27.81-17.65,47.44-10.53,12.38,4.48,23.4,18.52,26.16,31,1.77,8-3.55,13.07-13.95,17.51C848.6,483.82,841,486.87,835.18,486.91Zm-6.8-42.31c-4.14-.22-8.6,3.13-8.64,6.8,0,4,2.53,5.85,6.13,6.29,4.07.5,8.48-2.88,8.81-6.48S832.2,444.8,828.38,444.6Zm9.35,19.91C838,462.42,837,461,835,461a3.62,3.62,0,0,0-3.67,3.7,2.81,2.81,0,0,0,3.13,3.22A3.24,3.24,0,0,0,837.73,464.51Z" transform="translate(-476.79 -148.59)"/><path class="cls-5" d="M843.69,528.68c.21-.36.45-.68.76-.15,0,.06-.25.38-.39.58C843.93,529,843.81,528.83,843.69,528.68Z" transform="translate(-476.79 -148.59)"/><path class="cls-5" d="M957.19,595.42l-.57.56c-.28-.4-.21-.49.23-.35.08,0,.22-.13.33-.21Z" transform="translate(-476.79 -148.59)"/><ellipse class="cls-2" cx="348.56" cy="302.26" rx="8.07" ry="7.66"/><ellipse class="cls-2" cx="358.52" cy="313.27" rx="3.8" ry="4.31"/><path class="cls-1" d="M1028.55,477.82c17.33,0,39.16-9.93,46.46-28.05.68-1.29-3-8.49-9.7-14.61-12.06-11-27.52-14.48-45.77-6.59-11.5,5-21.15,18.69-23,30.41-1.2,7.52,4.17,11.85,14.33,15.27C1015.59,475.85,1023,478.17,1028.55,477.82Zm3.92-39.6c3.92-.48,8.38,2.33,8.63,5.72.27,3.65-2.06,5.58-5.45,6.23-3.85.73-8.25-2.1-8.78-5.41S1028.85,438.66,1032.47,438.22Zm-7.7,19c-.33-1.93.54-3.29,2.42-3.42a3.4,3.4,0,0,1,3.72,3.18,2.67,2.67,0,0,1-2.79,3.19A3,3,0,0,1,1024.77,457.27Z" transform="translate(-476.79 -148.59)"/><ellipse class="cls-2" cx="1034.28" cy="443.88" rx="8.07" ry="7.65" transform="translate(-566.27 232.63) rotate(-20.04)"/><ellipse class="cls-2" cx="1027.12" cy="457.68" rx="3.8" ry="4.31" transform="translate(-563.74 156.51) rotate(-16.22)"/><path class="cls-1" d="M928.62,523.62c6.09,13.85,14.39,25.7,26.8,32.26s25.45,5.82,38.38,1c-18,10.76-32.84,7.29-45.69-.13-11.37-4.55-18.67-17.42-18.67-17.42s-3.71,7.29-7.77,11.07c-10.54,9.83-12.88,9-16.13,10.53-5.24,2.45-27.31,5.32-39.11.53,2-1.9,3.62-.67,5.14-.36,7.11,1.43,29.14-2.92,34.49-7.07,9.61-7.47,17.34-17.94,22.56-30.43" transform="translate(-476.79 -148.59)"/></svg>